<?xml version="1.0" encoding="utf-8"?>
<svg version="1.2" baseProfile="tiny" id="Layer_1" xmlns="http://www.w3.org/2000/svg" xmlns:xlink="http://www.w3.org/1999/xlink"
	 x="0px" y="0px" width="240.199px" height="204.0px" viewBox="0 0 240.199 149.278" xml:space="preserve">
<path class="tile-highlight" d="M120.282,149.278L0,80.327l10.215-5.874c0,0-5.362-1.787-4.852-6.385c0.511-4.597,1.021-2.809,1.532-5.873
	s-0.511-4.597,3.319-5.107c3.831-0.511,2.724-2.299,7.917,0c2.926,1.295,4.597,1.532,4.852,3.83
	c0.256,2.299,2.731,4.156,1.788,5.448c-0.165,0.225,61.29-35.327,61.29-35.327l-0.296-20.282l17.113-9.818l17.113,9.818l2.063,0.335
	V9.818L139.167,0l17.113,9.818l-0.501,21.987l40.349,23.24l21.104-12.297l17.113,9.818l-0.422,24.441l6.274,3.32L120.282,149.278z"
	/>
</svg>
