<?xml version="1.0" encoding="utf-8"?>
<svg version="1.2" baseProfile="tiny" id="Layer_1" xmlns="http://www.w3.org/2000/svg" xmlns:xlink="http://www.w3.org/1999/xlink"
	 x="0px" y="0px" width="208.697px" height="90.563px" viewBox="0 0 208.697 90.563" xml:space="preserve">
<polygon fill="#BBBBBB" points="184.573,52.207 184.573,90.501 208.697,76.714 208.697,38.549 "/>
<polygon fill="#AAABAB" points="160.193,76.714 160.193,38.421 184.573,52.207 184.573,90.501 "/>
<polygon fill="#BBBBBB" points="122.666,10.339 122.666,36.379 106.199,45.824 106.199,19.785 "/>
<polygon fill="#AAABAB" points="89.605,10.467 89.605,36.379 106.199,45.824 106.199,19.785 "/>
<polygon fill="#AAABAB" points="87.819,35.357 87.819,9.19 71.479,0 71.479,26.04 "/>
<polygon fill="#BBBBBB" points="49.653,51.313 49.653,77.417 66.119,67.971 66.119,41.932 "/>
<polygon fill="#BBBBBB" points="48.441,76.905 48.441,38.613 24.188,52.398 24.188,90.563 "/>
<polygon fill="#AAABAB" points="0,38.613 0,76.523 24.188,90.563 24.188,52.398 "/>
</svg>
