<?xml version="1.0" encoding="utf-8"?>
<svg version="1.2" baseProfile="tiny" id="Layer_1" xmlns="http://www.w3.org/2000/svg" xmlns:xlink="http://www.w3.org/1999/xlink"
	 x="0px" y="0px" width="240.171px" height="191.0px" viewBox="0 0 240.171 162.664" xml:space="preserve">
<path fill="#000000"  d="M120.268,162.664L0,93.891l10.128-6.129c0,0-4.937-2.043-4.084-6.299c0.851-4.256,0.17-5.788,0.681-6.469
	c0.511-0.68,1.021-3.404,2.553-3.915c1.533-0.511,3.234-1.532,4.767-1.701c1.532-0.171,3.916,1.871,5.106,2.212
	c1.192,0.341,2.214,0.851,3.405,2.043s1.191,3.744,1.191,3.744s-0.341,2.555,0.17,2.555c0.511,0,66.561-37.792,66.561-37.792V13.881
	L114.599,0l23.884,13.541l0.044,22.215l38.089,21.79l0.127-7.533l34.365-21.04l16.577,9.421v48.518l12.486,7.318L120.268,162.664z"
	/>
</svg>
