<?xml version="1.0" encoding="utf-8"?>
<svg version="1.2" baseProfile="tiny" id="Layer_1" xmlns="http://www.w3.org/2000/svg" xmlns:xlink="http://www.w3.org/1999/xlink"
	 x="0px" y="0px" width="239.313px" height="180px" viewBox="0 0 239.313 173.219" xml:space="preserve">
<path d="M120.093,173.219L0,104.521l0,0l24.426-13.995l-0.241-25.938l17.05-9.781l17.05,9.781l-0.528,6.729l28.37-16.03
	c0,0-5.725-3.307-4.453-8.651c1.272-5.343,1.145-6.233,1.145-7.124s1.781-5.088,5.343-5.979c3.563-0.891,3.69-1.145,7.379,0.764
	c3.689,1.908,5.979,3.053,5.979,3.053s1.272,2.036,1.399,3.689c0.128,1.653,0.764,4.198,0.764,4.198l2.417-1.4l-0.489-24.493
	L139.619,0l16.096,9.49l0.127,47.07l25.444,14.63l1.145-0.381l-0.367-6.686l17.05-9.781l17.05,9.781l-0.743,26.979l23.894,13.674
	L120.093,173.219z"/>
</svg>
