<?xml version="1.0" encoding="utf-8"?>
<svg version="1.2" baseProfile="tiny" id="Layer_1" xmlns="http://www.w3.org/2000/svg" xmlns:xlink="http://www.w3.org/1999/xlink"
	 x="0px" y="0px" width="191.03px" height="116.018px" viewBox="0 0 191.03 116.018" xml:space="preserve">
<polygon fill="#BBBBBB" points="33.536,80.195 33.536,106.175 50.092,96.667 50.092,70.686 "/>
<polygon fill="#AAABAB" points="140.972,70.644 140.972,96.794 157.444,106.047 157.444,80.067 "/>
<polygon fill="#BBBBBB" points="16.557,116.018 16.557,63.931 32.857,54.762 32.857,106.467 "/>
<polygon fill="#AAABAB" points="0,54.634 0,106.849 16.557,116.018 16.557,63.931 "/>
<polygon fill="#AAABAB" points="157.917,54.38 157.917,106.594 174.474,115.764 174.474,63.676 "/>
<polygon fill="#AAABAB" points="81.506,9.296 81.506,61.511 98.062,70.681 98.062,18.594 "/>
<polygon fill="#BBBBBB" points="98.317,70.681 98.317,18.594 114.618,9.424 114.618,61.129 "/>
<polygon fill="#BBBBBB" points="115.127,61.256 115.127,9.169 131.428,0 131.428,51.705 "/>
<polygon fill="#BBBBBB" points="174.728,115.764 174.728,63.676 191.03,54.507 191.03,106.212 "/>
</svg>
