<?xml version="1.0" encoding="utf-8"?>
<svg version="1.2" baseProfile="tiny" id="Layer_1" xmlns="http://www.w3.org/2000/svg" xmlns:xlink="http://www.w3.org/1999/xlink"
	 x="0px" y="0px" width="240px" height="151.615px" viewBox="0 0 240 151.615" xml:space="preserve">
<path d="M120.334,151.615L0,82.948l12.333-7.333c0,0,0.333-7.667,2-9.667s5.301-5.002,10.333-2.666C27,64.365,25,54.948,26,54.282
	s10.125-16.792,21,1.333c0.546,0.91,51.333-29.667,51.333-29.667s1.293-5.209,5.667-8.333c1.75-1.25-3.125-15.125,7.375-17
	c16.735-2.988,15.626,5.667,15.292,9.667s0.333,7,0.333,7s12.041-4.292,16.375,2.708s1.958,8.958,1.958,8.958l39,22.333
	c0,0,5.849-9.282,19.792,2.208c0.708,0.583,3.917-3.708,11.625-2.75c3.309,0.412,10.75,7.083,9.75,13.75s-3.499,7.792-4.833,7.792
	S240,83.74,240,83.74L120.334,151.615z"/>
</svg>
