<?xml version="1.0" encoding="utf-8"?>
<svg version="1.2" baseProfile="tiny" id="Layer_1" xmlns="http://www.w3.org/2000/svg" xmlns:xlink="http://www.w3.org/1999/xlink"
	 x="0px" y="0px" width="208.511px" height="92.544px" viewBox="0 0 208.511 92.544" xml:space="preserve">
<polygon fill="#AAABAB" points="157.373,79.451 157.373,53.435 173.951,62.872 173.951,88.762 "/>
<polygon fill="#BBBBBB" points="190.529,79.579 190.529,53.563 173.951,62.872 173.951,88.762 "/>
<polygon fill="#BBBBBB" points="191.932,78.048 191.932,52.16 208.469,42.765 208.511,68.867 "/>
<polygon fill="#BBBBBB" points="16.494,66.527 16.494,92.544 33.073,83.021 33.073,57.006 "/>
<polygon fill="#AAABAB" points="0,57.091 0,83.276 16.494,92.544 16.494,66.527 "/>
<polygon fill="#BBBBBB" points="34.773,55.306 34.773,81.576 51.181,71.969 51.181,46.123 "/>
<polygon fill="#AAABAB" points="61.278,1.02 61.214,26.908 77.792,36.345 77.792,10.33 "/>
<polygon fill="#AAABAB" points="79.323,11.222 79.323,37.366 96.029,46.803 96.029,20.532 "/>
<polygon fill="#BBBBBB" points="112.544,11.351 112.481,37.302 96.029,46.868 96.029,20.595 "/>
<polygon fill="#BBBBBB" points="114.012,9.373 114.012,35.517 130.526,26.08 130.526,0 "/>
</svg>
