<?xml version="1.0" encoding="utf-8"?>
<svg version="1.2" baseProfile="tiny" id="Layer_1" xmlns="http://www.w3.org/2000/svg" xmlns:xlink="http://www.w3.org/1999/xlink"
	 x="0px" y="0px" width="239.405px" height="205.0px" viewBox="0 0 239.405 148.138" xml:space="preserve">
<path d="M137.83,21.381l1.824,0.976c0,0,1.061-3.436,1.018-3.903s-1.442-1.951-0.127-3.182c1.315-1.23,2.333-2.248,3.86-3.013
	c1.526-0.763,2.334-1.145,4.836-0.593c2.503,0.551,4.793,2.376,5.685,3.012c0.891,0.637,1.951,0.679,1.951,1.994
	c0,1.315,0.042,2.716,0.34,4.03c0.297,1.315,0.382,2.545,0.169,3.097c-0.212,0.551-0.551,0.934-0.551,1.994
	s-0.934,1.739-1.781,2.164c-0.85,0.423-3.182,1.485-3.182,1.485l26.895,15.527l20.235-11.54l25.114,14.806
	c0.891,0,7,2.799,9.545,4.454c2.546,1.655,2.8,4.455,2.927,6.746c0.128,2.29-1.018,3.436-0.89,5.345
	c0.126,1.909-0.51,3.69-2.419,4.327c-1.909,0.636-5.981,2.418-5.981,2.418l0.128,1.399l11.979,7l-119.266,68.215L0,79.414
	l14.763-8.654L14.254,48.36l24.944-14.762l19.854,11.454l26.979-14.764V9.927L102.322,0l35.38,20.363"/>
</svg>
